# xmcd CD database file
#
# Track frame offsets:
#	150
#	14055
#	30972
#	63207
#	92127
#	119485
#	137445
#	158005
#	186262
#	209240
#	243575
#	264025
#
# Disc length: 3793 seconds
#
# Revision: 4
# Processed by: cddbd v1.5.2PL0 Copyright (c) Steve Scherf et al.
# Submitted via: CDex 1.70beta3
#
DISCID=a20ecf0c
DTITLE=Various Artist - 機動戦士SDガンダム タイホしちゃうわ
DYEAR=1990
DGENRE=Anime
TTITLE0=本多千恵子,林原めぐみ／Tokyo Boogie Night
TTITLE1=タイホしちゃうわ Stage.1 夜霧の第二国道
TTITLE2=タイホしちゃうわ Stage.2 有楽町で逢いましょう
TTITLE3=タイホしちゃうわ Stage.3 東京ナイト・クラブ
TTITLE4=タイホしちゃうわ Stage.4 空に星があるように
TTITLE5=川村万梨阿／さよならの刹那
TTITLE6=松井菜桜子／Love Tact
TTITLE7=いいかげんに星!…な奴ら Stage.1 夢の途中
TTITLE8=いいかげんに星!…な奴ら Stage.2 Some Day
TTITLE9=いいかげんに星!…な奴ら Stage.3 路地裏の少年
TTITLE10=いいかげんに星!…な奴ら Stage.4 高血圧ガール
TTITLE11=水谷優子／今夜はHeart Breaker
EXTD=YEAR: 1990
EXTT0=
EXTT1=
EXTT2=
EXTT3=
EXTT4=
EXTT5=
EXTT6=
EXTT7=
EXTT8=
EXTT9=
EXTT10=
EXTT11=
PLAYORDER=
